<?xml version="1.0" standalone="no"?>
<!DOCTYPE svg PUBLIC "-//W3C//DTD SVG 20010904//EN"
 "http://www.w3.org/TR/2001/REC-SVG-20010904/DTD/svg10.dtd">
<svg version="1.0" xmlns="http://www.w3.org/2000/svg"
 width="1024.000000pt" height="1024.000000pt" viewBox="0 0 1024.000000 1024.000000"
 preserveAspectRatio="xMidYMid meet">

<g transform="translate(0.000000,1024.000000) scale(0.100000,-0.100000)"
fill="#000000" stroke="none">
<path d="M7448 7903 c28 -2 76 -2 105 0 28 2 5 3 -53 3 -58 0 -81 -1 -52 -3z"/>
<path d="M7288 7893 c7 -3 16 -2 19 1 4 3 -2 6 -13 5 -11 0 -14 -3 -6 -6z"/>
<path d="M7658 7893 c7 -3 16 -2 19 1 4 3 -2 6 -13 5 -11 0 -14 -3 -6 -6z"/>
<path d="M7168 7863 c7 -3 16 -2 19 1 4 3 -2 6 -13 5 -11 0 -14 -3 -6 -6z"/>
<path d="M7778 7863 c6 -2 18 -2 25 0 6 3 1 5 -13 5 -14 0 -19 -2 -12 -5z"/>
<path d="M7070 7830 c-9 -6 -10 -10 -3 -10 6 0 15 5 18 10 8 12 4 12 -15 0z"/>
<path d="M7968 7808 c5 -5 16 -8 23 -6 8 3 3 7 -10 11 -17 4 -21 3 -13 -5z"/>
<path d="M6933 7767 c-18 -12 -33 -26 -33 -30 0 -4 16 4 35 19 19 14 35 28 35
30 0 6 -2 5 -37 -19z"/>
<path d="M8085 7730 c-3 -6 1 -7 9 -4 18 7 21 14 7 14 -6 0 -13 -4 -16 -10z"/>
<path d="M6859 7713 c-13 -17 -13 -17 6 -3 11 8 22 16 24 17 2 2 0 3 -6 3 -6
0 -17 -8 -24 -17z"/>
<path d="M8203 7695 c0 -8 4 -12 9 -9 5 3 6 10 3 15 -9 13 -12 11 -12 -6z"/>
<path d="M6825 7690 c-3 -5 -1 -10 4 -10 6 0 11 5 11 10 0 6 -2 10 -4 10 -3 0
-8 -4 -11 -10z"/>
<path d="M8253 7665 c0 -8 4 -12 8 -9 4 2 22 -4 39 -15 29 -17 30 -20 13 -30
-10 -6 -13 -11 -6 -11 6 0 15 5 18 10 4 6 22 -2 44 -19 21 -17 42 -27 46 -23
5 4 5 1 1 -6 -5 -9 -12 -9 -27 -1 -11 5 -30 7 -42 3 -19 -6 -20 -5 -9 9 9 10
10 17 2 22 -5 3 -10 1 -10 -4 0 -6 -11 -11 -25 -11 -14 0 -25 3 -25 8 0 4 -9
13 -21 20 -12 8 -18 9 -14 3 3 -7 -2 -11 -14 -11 -11 0 -22 -9 -26 -20 -5 -17
-15 -20 -66 -20 -52 0 -59 -2 -59 -20 0 -18 7 -20 60 -20 33 0 60 -4 60 -9 0
-14 -21 -19 -57 -13 -17 2 -55 -1 -84 -8 -40 -10 -54 -10 -57 -1 -2 6 -21 11
-43 11 -21 0 -39 5 -39 10 0 6 18 10 40 10 26 0 40 5 40 13 0 10 -52 13 -240
15 -210 2 -240 1 -240 -13 0 -13 23 -15 163 -16 182 -1 178 -14 -6 -23 -62 -3
-122 -8 -134 -12 -14 -4 -23 -2 -23 5 0 7 -38 11 -120 11 -73 0 -120 -4 -120
-10 0 -5 -18 -10 -40 -10 -33 0 -40 3 -40 20 0 17 -7 20 -40 20 -22 0 -40 -4
-40 -10 0 -5 -18 -10 -40 -10 -22 0 -40 5 -40 10 0 6 -33 10 -79 10 -44 0 -81
4 -83 10 -1 5 -24 13 -49 16 -35 5 -49 2 -62 -11 -18 -17 -75 -18 -69 0 2 6 7
9 11 8 4 -1 7 10 8 25 0 15 -1 19 -4 9 -2 -9 -9 -15 -14 -11 -5 3 -8 0 -7 -8
2 -7 -3 -12 -10 -10 -8 1 -11 -2 -7 -8 3 -5 1 -10 -4 -10 -6 0 -11 -7 -11 -15
0 -8 -5 -15 -11 -15 -6 0 -8 -9 -3 -22 6 -19 5 -21 -8 -11 -15 13 -28 8 -28
-9 0 -5 5 -6 12 -2 7 4 8 3 4 -5 -4 -6 -11 -9 -16 -6 -16 10 -96 -137 -145
-270 -23 -60 -52 -201 -44 -209 13 -13 194 -26 269 -20 183 14 301 60 522 200
207 131 288 175 388 212 121 44 202 55 349 49 127 -5 241 -31 320 -72 17 -8
37 -13 43 -9 7 4 8 3 4 -4 -4 -7 -1 -12 8 -12 9 0 16 -5 16 -10 0 -7 -10 -7
-27 -3 -48 14 -205 7 -287 -11 -198 -45 -361 -151 -560 -365 -55 -58 -139
-145 -189 -193 -66 -64 -87 -90 -80 -101 4 -8 33 -35 64 -60 200 -162 401
-203 613 -123 136 52 211 109 346 264 56 64 133 153 172 198 89 104 185 185
290 245 46 26 90 54 98 61 8 7 16 12 17 11 8 -8 23 -1 18 7 -4 6 -12 7 -18 4
-7 -4 -8 -3 -4 1 9 11 -133 156 -145 149 -4 -3 -8 0 -8 6 0 6 -5 8 -12 4 -6
-4 -8 -3 -5 3 9 15 -19 36 -35 27 -7 -4 -10 -3 -5 1 9 10 -53 76 -65 69 -4 -3
-8 -1 -8 4 0 5 -12 17 -26 27 -18 12 -24 13 -19 4 4 -8 -3 -2 -16 13 -23 26
-80 67 -160 116 -28 17 -36 18 -36 7z m-1564 -166 c-13 -26 -23 -18 -14 10 3
12 11 19 16 16 5 -4 5 -14 -2 -26z m1551 11 c0 -5 -4 -10 -9 -10 -6 0 -13 5
-16 10 -3 6 1 10 9 10 9 0 16 -4 16 -10z m305 -50 c-3 -5 -12 -10 -18 -10 -7
0 -6 4 3 10 19 12 23 12 15 0z m-812 -27 c-7 -2 -19 -2 -25 0 -7 3 -2 5 12 5
14 0 19 -2 13 -5z m-66 -9 c-3 -3 -12 -4 -19 -1 -8 3 -5 6 6 6 11 1 17 -2 13
-5z m450 -20 c-3 -3 -12 -4 -19 -1 -8 3 -5 6 6 6 11 1 17 -2 13 -5z m70 -10
c-3 -3 -12 -4 -19 -1 -8 3 -5 6 6 6 11 1 17 -2 13 -5z m-674 -41 c3 -5 -6 -9
-20 -10 -19 -1 -22 1 -12 8 17 11 26 11 32 2z m789 0 c-6 -2 -10 -9 -7 -14 4
-5 -1 -6 -10 -2 -13 5 -14 7 -3 14 7 5 18 8 23 8 6 0 4 -3 -3 -6z"/>
<path d="M6755 7630 c-16 -16 -23 -30 -17 -30 7 0 12 5 12 11 0 8 6 7 18 -2
15 -13 16 -12 3 4 -11 15 -11 17 2 17 8 0 17 7 21 15 9 24 -8 17 -39 -15z"/>
<path d="M8280 7620 c-9 -6 -10 -10 -3 -10 6 0 15 5 18 10 8 12 4 12 -15 0z"/>
<path d="M4019 7353 c-13 -16 -12 -17 4 -4 9 7 17 15 17 17 0 8 -8 3 -21 -13z"/>
<path d="M2853 7323 c4 -3 -1 -16 -10 -27 -18 -21 -18 -21 3 -3 11 9 25 14 29
10 5 -5 3 0 -4 10 -7 9 -16 17 -19 17 -3 0 -2 -3 1 -7z"/>
<path d="M3959 7303 c-13 -16 -12 -17 4 -4 9 7 17 15 17 17 0 8 -8 3 -21 -13z"/>
<path d="M2757 7158 c-10 -17 -16 -33 -13 -35 2 -3 12 9 21 27 21 41 15 48 -8
8z"/>
<path d="M2718 7146 c-18 -22 -24 -37 -17 -41 12 -8 20 -2 23 17 1 7 8 23 14
36 18 31 11 28 -20 -12z"/>
<path d="M2777 7141 c-4 -17 -3 -21 5 -13 5 5 8 16 6 23 -3 8 -7 3 -11 -10z"/>
<path d="M4219 7133 c-13 -16 -12 -17 4 -4 9 7 17 15 17 17 0 8 -8 3 -21 -13z"/>
<path d="M3796 7108 l-18 -33 21 25 c18 22 26 40 18 40 -1 0 -11 -15 -21 -32z"/>
<path d="M5398 7123 c7 -3 16 -2 19 1 4 3 -2 6 -13 5 -11 0 -14 -3 -6 -6z"/>
<path d="M2693 7084 c21 -25 23 -41 2 -24 -16 13 -45 7 -45 -9 0 -12 63 -7 67
5 2 6 -7 19 -19 30 l-23 19 18 -21z"/>
<path d="M3751 7040 c-12 -17 -21 -35 -19 -40 2 -5 13 8 26 30 27 48 24 52 -7
10z"/>
<path d="M2621 7003 c-7 -15 -12 -30 -11 -32 1 -2 -3 -7 -8 -10 -23 -14 -142
-237 -213 -396 -87 -198 -169 -487 -205 -727 -21 -141 -30 -571 -15 -735 23
-254 73 -496 147 -712 304 -884 978 -1579 1829 -1886 374 -135 684 -189 1090
-188 278 0 413 13 649 65 551 119 996 356 1358 724 315 320 505 666 602 1099
36 158 46 258 46 445 0 228 -21 372 -84 590 -35 120 -125 322 -139 313 -6 -3
-7 -1 -3 5 11 19 -106 226 -147 261 -10 7 -17 18 -17 24 0 14 -91 123 -99 119
-3 -2 -5 -9 -3 -15 2 -5 -3 -14 -10 -18 -18 -12 -28 -11 -28 2 0 5 4 8 9 4 5
-3 12 -1 15 4 4 5 2 12 -4 16 -5 3 -10 12 -10 18 0 7 4 6 10 -3 13 -19 13 -8
0 24 -5 14 -15 26 -21 26 -8 0 -7 -6 2 -17 13 -16 12 -17 -3 -4 -10 7 -15 17
-12 23 7 10 -14 38 -28 38 -6 0 -6 -6 1 -14 11 -13 4 -15 -27 -7 -1 1 2 9 7
20 9 16 2 27 -45 70 -52 49 -80 67 -54 36 10 -12 9 -16 -5 -21 -21 -9 -38 15
-23 33 8 10 6 19 -7 33 -10 11 -23 20 -29 20 -6 0 -4 -5 4 -10 14 -9 7 -14
-13 -11 -5 1 -6 -3 -3 -8 9 -15 -10 -22 -39 -15 -14 3 -25 12 -25 20 0 8 -4
14 -10 14 -5 0 -10 -7 -10 -15 0 -11 -11 -15 -40 -15 -29 0 -40 4 -40 15 0 11
-10 15 -37 13 -67 -4 -123 2 -123 12 0 6 29 10 66 10 43 0 70 5 80 14 18 19
18 26 -1 26 -8 0 -15 -6 -15 -12 0 -9 -4 -8 -10 2 -5 8 -10 11 -10 5 0 -6 -50
-9 -136 -6 -127 3 -136 2 -132 -15 2 -14 12 -18 39 -18 34 0 36 -2 35 -32 -1
-18 -5 -36 -9 -40 -4 -5 -5 0 -1 11 6 14 4 17 -9 12 -9 -3 -31 0 -49 8 -20 9
-26 14 -15 15 10 0 26 -4 35 -9 11 -6 21 -5 29 4 9 10 0 12 -45 10 -51 -2 -59
1 -89 32 -19 18 -39 33 -46 33 -7 -1 -2 -9 11 -20 13 -11 21 -24 17 -30 -3 -5
-1 -10 5 -10 7 0 50 -18 96 -39 l84 -40 16 24 c21 33 50 40 71 19 16 -15 16
-17 -3 -31 -10 -7 -28 -13 -39 -12 -40 3 -39 -2 7 -31 52 -32 58 -35 58 -21 0
5 -10 11 -22 14 -12 4 -19 9 -16 13 4 3 16 3 28 -1 15 -5 20 -13 17 -26 -3
-12 3 -24 19 -34 13 -8 24 -12 24 -8 0 4 7 -3 16 -15 8 -12 20 -22 26 -22 6 0
8 3 5 7 -4 3 -1 13 6 21 10 13 9 15 -5 9 -24 -9 -23 0 1 13 15 7 19 7 17 -5
-1 -8 -5 -18 -9 -21 -4 -4 -1 -14 6 -22 10 -13 9 -14 -3 -8 -16 8 13 -19 93
-88 26 -22 78 -75 114 -116 37 -41 70 -74 73 -73 4 1 7 -3 7 -10 0 -7 33 -61
73 -121 263 -394 350 -878 244 -1353 -45 -207 -116 -378 -223 -548 -52 -81
-66 -90 -32 -19 54 111 130 409 157 609 20 151 15 431 -11 550 -69 323 -178
550 -385 797 -103 124 -295 296 -336 302 -7 1 -17 6 -21 11 -4 4 -1 5 7 0 11
-6 12 -5 4 4 -22 24 -210 121 -224 116 -8 -4 -11 -3 -7 1 9 10 -44 36 -60 29
-8 -2 -12 -1 -9 3 5 8 -148 61 -249 86 -96 24 -290 45 -432 48 -73 2 -133 6
-133 9 0 11 207 49 324 58 65 6 121 12 123 14 2 3 -51 5 -119 6 -81 1 -125 5
-129 13 -5 8 -14 4 -28 -13 -20 -24 -20 -24 -14 -1 3 12 1 22 -3 22 -433 17
-580 19 -756 7 -117 -7 -118 -7 -118 15 0 20 -1 21 -20 3 -15 -14 -20 -31 -20
-72 0 -48 2 -53 22 -53 27 0 21 -5 -17 -14 -22 -5 -26 -4 -15 4 12 8 9 9 -12
8 -16 -1 -28 -5 -28 -9 0 -9 32 -23 49 -20 7 1 10 -2 7 -7 -3 -5 9 -17 27 -26
17 -9 46 -25 62 -34 96 -56 254 -86 521 -102 298 -17 498 -48 667 -106 38 -13
75 -21 81 -17 6 3 8 3 4 -2 -4 -4 33 -26 81 -50 239 -116 420 -262 584 -470
145 -184 257 -431 309 -679 31 -150 31 -453 0 -621 -38 -202 -128 -438 -228
-598 -124 -196 -321 -397 -541 -550 -273 -191 -656 -311 -1018 -322 -77 -2
-124 -1 -105 1 273 36 591 132 815 248 450 232 757 577 894 1009 52 162 64
258 58 457 -5 193 -25 296 -89 455 -52 129 -160 325 -180 325 -5 0 -8 5 -8 11
0 20 -98 135 -186 218 -153 145 -378 278 -568 336 -172 52 -269 64 -601 75
-361 11 -448 16 -553 35 -80 14 -192 50 -252 81 -36 18 -141 92 -150 105 -3 4
-14 7 -25 6 -14 -1 -20 4 -20 18 0 23 -44 77 -56 69 -5 -3 -6 3 -2 12 4 11 2
15 -4 11 -6 -4 -10 1 -9 11 0 9 -5 16 -12 14 -8 -1 -11 2 -8 7 4 5 1 21 -6 36
-7 15 -14 21 -18 14 -4 -6 -7 2 -8 18 0 15 -7 53 -17 83 -11 37 -16 90 -16
160 0 99 9 147 46 245 7 19 7 19 -7 1 -14 -18 -15 -18 -31 5 -10 13 -17 18
-17 12 0 -6 8 -19 17 -29 13 -13 14 -19 5 -22 -7 -2 -10 -8 -7 -13 9 -13 -6
-80 -16 -73 -9 5 -13 -12 -11 -56 0 -14 -2 -18 -4 -9 -3 11 -13 15 -29 11 -14
-2 -25 0 -25 6 0 18 -61 24 -134 14 -63 -8 -69 -7 -74 10 -6 25 -22 23 -22 -4
0 -13 -5 -30 -10 -38 -12 -17 -7 53 10 139 11 58 13 87 5 80 -12 -13 -35 -172
-35 -244 2 -449 344 -814 860 -919 121 -25 240 -35 485 -41 240 -6 432 -25
525 -52 187 -53 344 -140 470 -262 l75 -72 -65 49 c-116 88 -308 172 -475 206
-123 25 -331 36 -685 35 -365 -1 -456 6 -635 52 -382 97 -705 382 -821 723
-13 38 -31 120 -41 183 -14 97 -15 131 -6 226 7 62 23 148 37 192 14 43 24 81
22 83 -2 2 -9 -12 -16 -32 -6 -19 -18 -40 -26 -46 -12 -11 -12 -8 1 16 8 16
15 36 14 44 0 8 -7 -2 -15 -22 -10 -24 -20 -35 -30 -31 -8 3 -11 9 -8 15 4 5
-5 8 -22 6 -43 -5 -43 -28 0 -28 41 0 54 -17 36 -49 -14 -27 -30 -27 -30 0 0
19 -4 21 -30 16 -17 -4 -30 -2 -30 3 0 6 -18 10 -40 10 -22 0 -40 5 -40 10 0
6 18 10 40 10 34 0 40 3 40 21 0 21 -3 22 -61 15 -34 -3 -70 -6 -80 -6 -11 0
-19 -7 -19 -15 0 -11 -11 -15 -39 -15 -22 0 -41 4 -43 10 -5 14 -156 20 -161
6 -3 -6 -3 6 -2 27 2 21 -1 35 -6 32 -5 -4 -9 -19 -9 -35 0 -16 -4 -32 -10
-35 -5 -3 -10 -16 -9 -28 1 -21 1 -21 7 -1 6 16 17 21 60 23 42 2 52 -1 52
-13 0 -12 -11 -16 -45 -16 -25 0 -45 -4 -45 -9 0 -23 14 -41 31 -41 10 0 19
-5 19 -11 0 -12 -43 -1 -48 12 -2 4 -10 5 -18 2 -10 -4 -12 0 -8 11 3 9 2 16
-4 16 -13 0 -22 -99 -22 -239 0 -389 155 -757 432 -1028 203 -199 518 -360
823 -422 226 -45 440 -49 805 -15 488 45 652 36 875 -51 109 -43 174 -82 264
-161 96 -84 173 -183 231 -299 64 -129 90 -230 97 -375 11 -229 -41 -432 -159
-630 -67 -110 -228 -288 -313 -344 l-40 -26 -5 582 -5 583 -38 0 -37 0 0 137
c0 134 0 137 -22 140 -20 3 -23 10 -26 61 -3 49 -6 57 -22 57 -17 0 -20 -7
-20 -44 0 -57 -8 -76 -30 -76 -23 0 -32 -39 -30 -128 1 -37 2 -86 1 -109 l-1
-43 -40 0 -40 0 0 -120 0 -120 45 0 45 0 0 -45 0 -45 -45 0 -45 0 0 -65 0 -65
-70 0 -70 0 -2 -462 -3 -462 -80 -22 c-103 -29 -111 -29 -112 -1 0 12 -1 365
-2 785 l-1 762 -175 0 -175 0 0 -795 0 -795 -65 0 -65 0 0 695 0 696 -144 94
c-80 52 -148 95 -153 95 -4 0 -7 -346 -5 -770 1 -463 -1 -770 -7 -770 -5 0
-39 14 -76 30 l-68 30 6 410 6 410 -143 0 c-141 0 -144 0 -150 23 -3 12 -6
230 -6 484 l0 462 -27 19 c-16 10 -95 60 -178 109 -82 50 -193 118 -245 151
l-95 61 -3 -839 c-1 -499 -6 -840 -11 -840 -5 0 -32 26 -60 57 l-51 57 0 618
0 618 -160 0 -160 0 0 -465 c0 -256 -3 -465 -7 -465 -5 0 -33 37 -63 81 l-55
81 -5 751 -5 752 -140 97 -140 98 -3 -433 -3 -432 -25 75 c-56 172 -91 478
-79 705 19 382 105 676 316 1082 81 156 88 174 78 197 -11 23 -18 26 -66 26
-29 0 -53 5 -53 10 0 6 -18 10 -40 10 -22 0 -40 5 -40 10 0 6 18 10 40 10 28
0 40 4 40 14 0 18 -138 31 -232 22 -55 -5 -65 -3 -79 15 -15 20 -15 20 -28 -8z
m12 -20 c-4 -11 -3 -14 5 -9 9 6 9 1 1 -18 -7 -14 -16 -23 -21 -20 -5 3 -4 12
3 20 9 11 9 14 -1 14 -10 0 -10 3 0 15 16 20 21 19 13 -2z m167 -38 c0 -11
-12 -15 -50 -15 -38 0 -50 4 -50 15 0 11 12 15 50 15 38 0 50 -4 50 -15z
m-213 -40 c-7 -13 -14 -20 -15 -14 -2 5 2 16 8 24 18 21 20 18 7 -10z m493
-36 c0 -13 -24 -23 -28 -11 -2 6 -10 8 -18 5 -8 -3 -14 0 -14 5 0 6 14 10 30
10 17 -1 30 -5 30 -9z m-530 -54 c14 -18 13 -19 -1 -8 -9 7 -19 10 -23 6 -4
-4 -4 1 0 10 3 10 7 17 8 15 1 -2 8 -12 16 -23z m998 -107 c-6 -18 -28 -21
-28 -4 0 9 7 16 16 16 9 0 14 -5 12 -12z m52 8 c0 -3 -4 -8 -10 -11 -5 -3 -10
-1 -10 4 0 6 5 11 10 11 6 0 10 -2 10 -4z m-500 -40 c0 -3 -4 -8 -10 -11 -5
-3 -10 -1 -10 4 0 6 5 11 10 11 6 0 10 -2 10 -4z m877 -188 c-3 -8 -6 -5 -6 6
-1 11 2 17 5 13 3 -3 4 -12 1 -19z m86 -15 c-13 -2 -33 -2 -45 0 -13 2 -3 4
22 4 25 0 35 -2 23 -4z m177 -3 c0 -5 -4 -10 -10 -10 -5 0 -10 5 -10 10 0 6 5
10 10 10 6 0 10 -4 10 -10z m880 -165 c0 -12 -13 -15 -59 -15 -32 0 -86 -3
-120 -6 -58 -7 -61 -6 -61 15 0 20 4 21 120 21 100 0 120 -2 120 -15z m546 8
c-15 -4 -16 -7 -5 -14 10 -6 7 -9 -11 -9 -21 0 -22 -2 -10 -11 12 -9 12 -10
-3 -5 -10 3 -24 6 -30 6 -7 0 -6 4 3 10 13 9 13 10 0 11 -17 2 37 17 60 17 8
0 6 -3 -4 -5z m-761 -131 c-3 -4 -10 0 -15 8 -8 13 -10 13 -10 1 0 -18 -13 -6
-16 14 -1 8 2 13 6 10 5 -3 15 1 22 9 11 12 13 10 16 -11 2 -14 1 -28 -3 -31z
m2255 -7 c-12 -15 -40 -21 -40 -8 0 3 8 15 17 25 21 23 43 7 23 -17z m-240
-31 c0 -24 -27 -27 -50 -6 l-20 19 35 1 c25 1 35 -3 35 -14z m153 9 c-7 -2
-19 -2 -25 0 -7 3 -2 5 12 5 14 0 19 -2 13 -5z m146 -36 c-9 -20 -9 -20 4 -4
17 21 31 23 24 3 -4 -10 -1 -13 7 -10 8 3 17 1 20 -4 3 -5 -5 -8 -17 -7 -12 0
-29 -2 -37 -6 -12 -6 -16 -1 -18 18 -2 29 6 46 19 38 5 -4 5 -15 -2 -28z
m-365 17 c9 -3 16 -10 16 -15 0 -6 -9 -5 -21 1 -11 6 -35 9 -52 6 -25 -5 -27
-4 -12 3 24 12 48 13 69 5z m17 -57 c-10 -9 -11 -8 -5 6 3 10 9 15 12 12 3 -3
0 -11 -7 -18z m429 -1 c0 -3 -4 -8 -10 -11 -5 -3 -10 -1 -10 4 0 6 5 11 10 11
6 0 10 -2 10 -4z m-279 -103 l24 -28 -27 24 c-16 13 -32 20 -39 16 -8 -5 -10
-4 -5 3 11 18 20 15 47 -15z m404 -43 c3 -5 1 -10 -4 -10 -6 0 -11 5 -11 10 0
6 2 10 4 10 3 0 8 -4 11 -10z m-151 -178 c3 -5 -1 -9 -9 -9 -8 0 -12 4 -9 9 3
4 7 8 9 8 2 0 6 -4 9 -8z m-4204 -557 l0 -45 -45 0 -45 0 0 45 0 45 45 0 45 0
0 -45z m0 -420 l0 -45 -50 0 -50 0 0 45 0 45 50 0 50 0 0 -45z m820 -156 c0
-43 -3 -50 -16 -45 -9 3 -31 6 -50 6 -34 0 -34 0 -34 45 l0 45 50 0 50 0 0
-51z m-506 -69 l1 -45 -47 -3 -48 -3 0 45 c0 41 2 45 28 49 59 9 65 5 66 -43z
m576 -260 l0 -50 -45 0 -45 0 0 50 0 50 45 0 45 0 0 -50z m1320 -570 l0 -40
-45 0 -45 0 0 40 0 40 45 0 45 0 0 -40z m668 -56 c-3 -38 -4 -39 -45 -42 l-43
-3 0 45 c0 45 0 45 38 48 48 4 54 -1 50 -48z m-1590 -237 l3 -48 -48 3 -48 3
-3 42 c-3 40 -2 42 30 46 60 7 63 5 66 -46z"/>
<path d="M7139 6183 c-13 -16 -12 -17 4 -4 16 13 21 21 13 21 -2 0 -10 -8 -17
-17z"/>
<path d="M5680 7026 c0 -2 7 -7 16 -10 8 -3 12 -2 9 4 -6 10 -25 14 -25 6z"/>
<path d="M3711 6973 c0 -13 -6 -22 -12 -20 -6 1 -14 -5 -16 -13 -4 -13 -3 -13
6 0 10 13 11 13 11 0 1 -12 3 -11 11 3 6 10 8 25 6 35 -3 12 -5 11 -6 -5z"/>
<path d="M3685 6909 c-4 -6 -5 -12 -2 -15 2 -3 7 2 10 11 7 17 1 20 -8 4z"/>
<path d="M3600 6895 c0 -8 7 -15 15 -15 9 0 12 6 9 15 -4 8 -10 15 -15 15 -5
0 -9 -7 -9 -15z"/>
<path d="M3200 6890 c0 -5 5 -10 11 -10 5 0 7 5 4 10 -3 6 -8 10 -11 10 -2 0
-4 -4 -4 -10z"/>
<path d="M4402 6842 l-12 -25 25 23 c29 27 29 27 12 27 -7 0 -18 -12 -25 -25z"/>
<path d="M4359 6783 c-22 -46 -22 -50 1 -15 13 18 20 35 18 37 -3 3 -11 -7
-19 -22z"/>
<path d="M4335 6789 c-4 -6 -5 -12 -2 -15 2 -3 7 2 10 11 7 17 1 20 -8 4z"/>
<path d="M4323 6731 c0 -11 5 -18 9 -15 4 3 5 11 1 19 -7 21 -12 19 -10 -4z"/>
<path d="M3986 6663 c9 -38 14 -42 14 -10 0 14 -5 29 -10 32 -7 4 -8 -3 -4
-22z"/>
<path d="M4246 6653 c-6 -14 -5 -15 5 -6 7 7 10 15 7 18 -3 3 -9 -2 -12 -12z"/>
<path d="M6008 6663 c6 -2 18 -2 25 0 6 3 1 5 -13 5 -14 0 -19 -2 -12 -5z"/>
<path d="M4145 6650 c-3 -5 -1 -10 4 -10 6 0 11 5 11 10 0 6 -2 10 -4 10 -3 0
-8 -4 -11 -10z"/>
<path d="M5753 6653 c9 -2 23 -2 30 0 6 3 -1 5 -18 5 -16 0 -22 -2 -12 -5z"/>
<path d="M6133 6653 c9 -2 23 -2 30 0 6 3 -1 5 -18 5 -16 0 -22 -2 -12 -5z"/>
<path d="M5678 6643 c12 -2 30 -2 40 0 9 3 -1 5 -23 4 -22 0 -30 -2 -17 -4z"/>
<path d="M6198 6643 c6 -2 18 -2 25 0 6 3 1 5 -13 5 -14 0 -19 -2 -12 -5z"/>
<path d="M5553 6633 c-47 -6 -41 -19 7 -15 22 2 40 8 40 13 0 5 -3 8 -7 7 -5
0 -23 -3 -40 -5z"/>
<path d="M5445 6610 c-27 -7 -27 -8 -5 -8 14 0 36 4 50 8 20 6 21 8 5 8 -11 0
-33 -4 -50 -8z"/>
<path d="M3977 6604 c-8 -8 3 -34 14 -34 11 0 12 27 0 34 -4 3 -11 3 -14 0z"/>
<path d="M6398 6603 c6 -2 18 -2 25 0 6 3 1 5 -13 5 -14 0 -19 -2 -12 -5z"/>
<path d="M4176 6593 c-4 -4 -27 -6 -51 -4 -35 2 -45 -1 -45 -13 0 -13 14 -16
80 -16 44 0 80 4 80 8 0 24 -47 42 -64 25z"/>
<path d="M5388 6593 c7 -3 16 -2 19 1 4 3 -2 6 -13 5 -11 0 -14 -3 -6 -6z"/>
<path d="M5310 6580 c-11 -8 -7 -9 15 -4 37 8 45 14 19 14 -10 0 -26 -5 -34
-10z"/>
<path d="M5225 6566 c-40 -9 -46 -13 -30 -19 12 -5 21 -4 23 2 2 6 17 11 33
11 16 0 29 5 29 10 0 6 -1 10 -2 9 -2 0 -25 -6 -53 -13z"/>
<path d="M5378 6573 c6 -2 18 -2 25 0 6 3 1 5 -13 5 -14 0 -19 -2 -12 -5z"/>
<path d="M3991 6544 c0 -11 3 -14 6 -6 3 7 2 16 -1 19 -3 4 -6 -2 -5 -13z"/>
<path d="M5095 6534 l-60 -13 59 4 c32 2 64 9 69 14 13 13 10 13 -68 -5z"/>
<path d="M6680 6510 c8 -5 20 -10 25 -10 6 0 3 5 -5 10 -8 5 -19 10 -25 10 -5
0 -3 -5 5 -10z"/>
<path d="M4966 6502 c-2 -4 12 -6 32 -4 62 6 69 10 20 11 -26 0 -49 -3 -52 -7z"/>
<path d="M4780 6465 c-110 -27 -126 -33 -83 -32 28 1 49 5 47 9 -2 3 15 9 38
13 55 9 149 33 156 40 9 9 -20 3 -158 -30z"/>
<path d="M6727 6489 c7 -7 15 -10 18 -7 3 3 -2 9 -12 12 -14 6 -15 5 -6 -5z"/>
<path d="M6767 6469 c7 -7 15 -10 18 -7 3 3 -2 9 -12 12 -14 6 -15 5 -6 -5z"/>
<path d="M6812 6447 c12 -9 14 -17 8 -25 -7 -9 -7 -9 2 -2 16 14 31 13 22 -2
-4 -7 -3 -8 4 -4 17 11 15 14 -20 31 -23 11 -28 12 -16 2z"/>
<path d="M4803 6429 c6 -10 17 -19 24 -19 19 0 4 27 -17 33 -16 4 -17 2 -7
-14z"/>
<path d="M4853 6435 c0 -8 7 -15 15 -15 12 0 12 3 2 15 -7 8 -13 15 -15 15 -1
0 -2 -7 -2 -15z"/>
<path d="M4620 6419 c0 -5 5 -7 10 -4 6 3 10 8 10 11 0 2 -4 4 -10 4 -5 0 -10
-5 -10 -11z"/>
<path d="M6730 6420 c-9 -6 -10 -10 -3 -10 6 0 15 5 18 10 8 12 4 12 -15 0z"/>
<path d="M4748 6413 c7 -3 16 -2 19 1 4 3 -2 6 -13 5 -11 0 -14 -3 -6 -6z"/>
<path d="M5200 6410 c0 -5 7 -10 16 -10 8 0 12 5 9 10 -3 6 -10 10 -16 10 -5
0 -9 -4 -9 -10z"/>
<path d="M6865 6410 c-3 -5 1 -10 10 -10 9 0 13 5 10 10 -3 6 -8 10 -10 10 -2
0 -7 -4 -10 -10z"/>
<path d="M4858 6403 c7 -3 16 -2 19 1 4 3 -2 6 -13 5 -11 0 -14 -3 -6 -6z"/>
<path d="M4649 6372 c19 -27 41 -36 41 -16 0 3 -4 2 -10 -1 -5 -3 -10 -2 -10
4 0 17 22 24 31 10 6 -9 9 -10 9 -2 0 18 -20 27 -33 14 -8 -8 -16 -6 -31 7
-17 15 -17 13 3 -16z"/>
<path d="M6916 6382 c-3 -5 11 -16 30 -25 19 -10 33 -21 30 -25 -2 -4 7 -8 22
-9 15 -1 20 1 12 4 -8 3 -17 9 -20 12 -14 19 -69 50 -74 43z"/>
<path d="M6885 6360 c1 -11 5 -23 10 -27 4 -5 5 -2 0 6 -5 9 -3 12 6 9 8 -3
13 -11 11 -17 -1 -7 2 -9 9 -6 7 5 3 15 -12 31 -27 29 -26 29 -24 4z"/>
<path d="M4690 6335 c0 -17 46 -68 63 -71 10 -1 15 2 11 7 -3 5 2 9 10 9 19 0
20 -11 4 -30 -11 -12 -10 -12 5 -1 22 17 22 57 1 65 -9 4 -19 4 -22 1 -3 -3 0
-5 6 -5 7 0 12 -5 12 -11 0 -5 -5 -7 -10 -4 -6 4 -18 1 -27 -7 -15 -11 -16
-11 -10 5 4 10 3 16 -2 12 -5 -3 -17 5 -25 17 -9 12 -16 18 -16 13z"/>
<path d="M6123 6303 c15 -2 39 -2 55 0 15 2 2 4 -28 4 -30 0 -43 -2 -27 -4z"/>
<path d="M6245 6299 c-13 -6 4 -7 50 -3 39 4 72 8 74 10 9 8 -105 2 -124 -7z"/>
<path d="M6393 6288 c8 -4 27 -3 43 1 26 8 25 9 -13 8 -25 -1 -37 -4 -30 -9z"/>
<path d="M6325 6280 c17 -4 39 -8 50 -8 l20 -1 -20 9 c-11 5 -33 8 -50 8 l-30
0 30 -8z"/>
<path d="M7044 6275 c-4 -8 -12 -15 -20 -15 -8 0 -14 -4 -14 -10 0 -5 7 -10
15 -10 8 0 15 4 15 9 0 5 7 17 16 25 8 9 10 16 4 16 -6 0 -13 -7 -16 -15z"/>
<path d="M6417 6271 c-14 -5 -5 -10 35 -20 29 -8 60 -16 68 -18 9 -3 7 0 -3 7
-18 12 -34 16 -67 20 -8 1 -4 6 10 10 l25 8 -25 0 c-14 0 -33 -3 -43 -7z"/>
<path d="M7079 6278 c0 -2 -2 -11 -4 -21 -3 -15 -1 -16 11 -6 7 6 11 15 8 20
-5 9 -13 12 -15 7z"/>
<path d="M4430 6000 c0 -5 5 -10 11 -10 5 0 7 5 4 10 -3 6 -8 10 -11 10 -2 0
-4 -4 -4 -10z"/>
</g>
</svg>
